<svg width="24" height="24" viewBox="0 0 24 24" fill="none" xmlns="http://www.w3.org/2000/svg">
<path d="M12 7V12L15 15M21.9354 13.1419C22.1628 11.1493 21.7866 9.13425 20.8555 7.35823C19.9245 5.5822 18.4816 4.12709 16.7141 3.18166C14.9465 2.23622 12.9359 1.84407 10.9429 2.05608C8.94991 2.26808 7.06657 3.07446 5.53716 4.37062C4.00775 5.66678 2.90284 7.39291 2.36575 9.32511C1.82867 11.2573 1.88418 13.3064 2.5251 15.2067C3.16601 17.1069 4.36276 18.7706 5.9601 19.9819C7.55745 21.1933 9.48168 21.8964 11.4832 22M15 20L17.3333 22L22 18" stroke="#0072DE" stroke-width="2" stroke-linecap="round" stroke-linejoin="round"/>
</svg>
