<svg width="18" height="16" viewBox="0 0 18 16" fill="none" xmlns="http://www.w3.org/2000/svg">
<path d="M8.07668 0.719929C8.41827 -0.101364 9.58173 -0.101364 9.92332 0.719929L11.4105 4.29546C11.5545 4.6417 11.8801 4.87827 12.2539 4.90823L16.114 5.2177C17.0006 5.28878 17.3601 6.39529 16.6846 6.97396L13.7436 9.49322C13.4588 9.73717 13.3345 10.1199 13.4215 10.4847L14.32 14.2515C14.5264 15.1167 13.5851 15.8006 12.826 15.3369L9.52125 13.3184C9.20124 13.1229 8.79876 13.1229 8.47875 13.3184L5.17397 15.3369C4.41487 15.8006 3.47362 15.1167 3.68001 14.2515L4.57852 10.4847C4.66553 10.1199 4.54116 9.73717 4.25637 9.49322L1.31539 6.97396C0.639854 6.39529 0.99938 5.28878 1.88603 5.2177L5.74612 4.90823C6.11991 4.87827 6.44552 4.6417 6.58953 4.29546L8.07668 0.719929Z" fill="#FBBF24"/>
</svg>
