<svg width="28" height="28" viewBox="0 0 28 28" fill="none" xmlns="http://www.w3.org/2000/svg">
<path d="M13.9999 8.16634V13.9997L17.4999 17.4997M25.5913 15.3318C25.8565 13.0071 25.4176 10.6563 24.3314 8.58427C23.2452 6.51224 21.5618 4.81462 19.4997 3.71161C17.4376 2.60859 15.0918 2.15109 12.7666 2.39843C10.4415 2.64577 8.24425 3.58655 6.45994 5.09873C4.67562 6.61092 3.38657 8.62473 2.75996 10.879C2.13336 13.1332 2.19813 15.5238 2.94587 17.7408C3.6936 19.9577 5.0898 21.8987 6.95337 23.3119C8.81694 24.7252 11.0619 25.5454 13.397 25.6663M17.4999 23.333L20.2221 25.6663L25.6666 20.9997" stroke="#0072DE" stroke-width="2" stroke-linecap="round" stroke-linejoin="round"/>
</svg>
